<svg width="5997" height="1163" viewBox="0 0 5997 1163" fill="none" xmlns="http://www.w3.org/2000/svg">
<rect x="5" y="5" width="5987" height="1153" fill="white"/>
<path d="M2561.08 275.599C2567.92 281.576 2567.92 292.211 2561.08 298.188L2413.67 427.013C2403.97 435.491 2388.8 428.602 2388.8 415.718V158.069C2388.8 145.186 2403.97 138.297 2413.67 146.774L2561.08 275.599Z" fill="url(#paint0_linear)"/>
<path d="M2439.95 284.762C2439.95 294.179 2432.31 301.813 2422.9 301.813C2413.48 301.813 2405.85 294.179 2405.85 284.762C2405.85 275.345 2413.48 267.712 2422.9 267.712C2432.31 267.712 2439.95 275.345 2439.95 284.762Z" fill="white"/>
<path d="M2503.89 284.762C2503.89 294.179 2496.25 301.813 2486.84 301.813C2477.42 301.813 2469.79 294.179 2469.79 284.762C2469.79 275.345 2477.42 267.712 2486.84 267.712C2496.25 267.712 2503.89 275.345 2503.89 284.762Z" fill="white"/>
<path d="M2439.95 212.812C2439.95 222.188 2432.31 229.789 2422.9 229.789C2413.48 229.789 2405.85 222.188 2405.85 212.812C2405.85 203.436 2413.48 195.835 2422.9 195.835C2432.31 195.835 2439.95 203.436 2439.95 212.812Z" fill="white"/>
<path d="M2439.95 360.901C2439.95 370.318 2432.31 377.952 2422.9 377.952C2413.48 377.952 2405.85 370.318 2405.85 360.901C2405.85 351.485 2413.48 343.851 2422.9 343.851C2432.31 343.851 2439.95 351.485 2439.95 360.901Z" fill="white"/>
<path d="M2337.94 284.762C2337.94 294.179 2345.57 301.813 2354.99 301.813C2364.41 301.813 2372.04 294.179 2372.04 284.762C2372.04 275.345 2364.41 267.712 2354.99 267.712C2345.57 267.712 2337.94 275.345 2337.94 284.762Z" fill="url(#paint1_linear)"/>
<path d="M2274 284.762C2274 294.179 2281.63 301.813 2291.05 301.813C2300.47 301.813 2308.1 294.179 2308.1 284.762C2308.1 275.345 2300.47 267.712 2291.05 267.712C2281.63 267.712 2274 275.345 2274 284.762Z" fill="url(#paint2_linear)"/>
<path d="M2337.94 212.812C2337.94 222.188 2345.57 229.789 2354.99 229.789C2364.41 229.789 2372.04 222.188 2372.04 212.812C2372.04 203.436 2364.41 195.835 2354.99 195.835C2345.57 195.835 2337.94 203.436 2337.94 212.812Z" fill="url(#paint3_linear)"/>
<path d="M2337.94 360.901C2337.94 370.318 2345.57 377.952 2354.99 377.952C2364.41 377.952 2372.04 370.318 2372.04 360.901C2372.04 351.485 2364.41 343.851 2354.99 343.851C2345.57 343.851 2337.94 351.485 2337.94 360.901Z" fill="url(#paint4_linear)"/>
<path d="M2954.3 337.1C2956.9 337.1 2958.9 338.3 2960.3 340.7C2961.9 343.1 2962.7 346.4 2962.7 350.6C2962.7 358.4 2960.8 364.6 2957 369.2C2947.4 380.8 2937.7 389.8 2927.9 396.2C2918.1 402.4 2906.5 405.5 2893.1 405.5C2880.1 405.5 2869 402 2859.8 395C2850.8 388 2842.2 376 2834 359C2827.4 345.4 2822.2 335.4 2818.4 329C2814.6 322.4 2810.8 317.7 2807 314.9C2803.4 312.1 2798.9 310.4 2793.5 309.8C2792.7 314 2790.4 327.2 2786.6 349.4C2785 359.4 2784 365.5 2783.6 367.7C2781.6 379.9 2777.6 389.3 2771.6 395.9C2765.6 402.3 2756.5 405.5 2744.3 405.5C2730.9 405.5 2719 401.6 2708.6 393.8C2698.4 385.8 2690.5 374.8 2684.9 360.8C2679.3 346.6 2676.5 330.5 2676.5 312.5C2676.5 278.9 2682.3 249.9 2693.9 225.5C2705.7 201.1 2722.1 182.5 2743.1 169.7C2764.3 156.7 2788.7 150.2 2816.3 150.2C2835.5 150.2 2851.6 153.1 2864.6 158.9C2877.6 164.7 2887.2 172.7 2893.4 182.9C2899.8 193.1 2903 204.6 2903 217.4C2903 228.6 2900.3 239.6 2894.9 250.4C2889.7 261 2881.8 270.4 2871.2 278.6C2860.6 286.8 2847.7 292.9 2832.5 296.9C2842.1 299.5 2849.5 303.7 2854.7 309.5C2859.9 315.3 2865.1 323.8 2870.3 335C2875.9 347 2881.4 355.8 2886.8 361.4C2892.4 367 2898.8 369.8 2906 369.8C2912.4 369.8 2918.5 367.7 2924.3 363.5C2930.1 359.1 2937.4 351.7 2946.2 341.3C2948.6 338.5 2951.3 337.1 2954.3 337.1ZM2752.1 309.5C2745.3 309.5 2740.6 307.9 2738 304.7C2735.6 301.5 2734.4 297.9 2734.4 293.9C2734.4 289.1 2735.9 285.3 2738.9 282.5C2742.1 279.7 2745.7 278.3 2749.7 278.3H2757.2C2760.4 258.7 2763.4 241.8 2766.2 227.6C2768.8 214.6 2777.2 208.1 2791.4 208.1C2802.8 208.1 2808.5 213.2 2808.5 223.4C2808.5 225.6 2808.4 227.3 2808.2 228.5L2799.2 278.3C2810 277.7 2819.8 275.1 2828.6 270.5C2837.6 265.9 2844.7 259.5 2849.9 251.3C2855.3 243.1 2858 233.8 2858 223.4C2858 210.8 2853.7 200.9 2845.1 193.7C2836.5 186.5 2823.9 182.9 2807.3 182.9C2787.7 182.9 2770.5 187.8 2755.7 197.6C2741.1 207.2 2729.7 221.6 2721.5 240.8C2713.3 259.8 2709.2 283 2709.2 310.4C2709.2 323.2 2710.5 334.2 2713.1 343.4C2715.7 352.6 2718.9 359.5 2722.7 364.1C2726.5 368.7 2730.1 371 2733.5 371C2736.1 371 2738.2 369.7 2739.8 367.1C2741.6 364.5 2743 360.3 2744 354.5L2752.1 309.5ZM3066.31 337.1C3068.91 337.1 3070.91 338.3 3072.31 340.7C3073.91 343.1 3074.71 346.4 3074.71 350.6C3074.71 358.6 3072.81 364.8 3069.01 369.2C3061.61 378.2 3051.11 386.5 3037.51 394.1C3024.11 401.7 3009.71 405.5 2994.31 405.5C2973.31 405.5 2957.01 399.8 2945.41 388.4C2933.81 377 2928.01 361.4 2928.01 341.6C2928.01 327.8 2930.91 315 2936.71 303.2C2942.51 291.2 2950.51 281.7 2960.71 274.7C2971.11 267.7 2982.81 264.2 2995.81 264.2C3007.41 264.2 3016.71 267.7 3023.71 274.7C3030.71 281.5 3034.21 290.8 3034.21 302.6C3034.21 316.4 3029.21 328.3 3019.21 338.3C3009.41 348.1 2992.71 355.9 2969.11 361.7C2974.11 370.9 2983.61 375.5 2997.61 375.5C3006.61 375.5 3016.81 372.4 3028.21 366.2C3039.81 359.8 3049.81 351.5 3058.21 341.3C3060.61 338.5 3063.31 337.1 3066.31 337.1ZM2990.71 293.6C2983.31 293.6 2977.01 297.9 2971.81 306.5C2966.81 315.1 2964.31 325.5 2964.31 337.7V338.3C2976.11 335.5 2985.41 331.3 2992.21 325.7C2999.01 320.1 3002.41 313.6 3002.41 306.2C3002.41 302.4 3001.31 299.4 2999.11 297.2C2997.11 294.8 2994.31 293.6 2990.71 293.6ZM3085.71 405.5C3073.31 405.5 3063.41 401 3056.01 392C3048.61 383 3044.91 371.2 3044.91 356.6C3044.91 340.6 3048.61 325.5 3056.01 311.3C3063.41 296.9 3073.21 285.4 3085.41 276.8C3097.81 268 3110.91 263.6 3124.71 263.6C3129.11 263.6 3132.01 264.5 3133.41 266.3C3135.01 267.9 3136.31 270.9 3137.31 275.3C3141.51 274.5 3145.91 274.1 3150.51 274.1C3160.31 274.1 3165.21 277.6 3165.21 284.6C3165.21 288.8 3163.71 298.8 3160.71 314.6C3156.11 337.6 3153.81 353.6 3153.81 362.6C3153.81 365.6 3154.51 368 3155.91 369.8C3157.51 371.6 3159.51 372.5 3161.91 372.5C3165.71 372.5 3170.31 370.1 3175.71 365.3C3181.11 360.3 3188.41 352.3 3197.61 341.3C3200.01 338.5 3202.71 337.1 3205.71 337.1C3208.31 337.1 3210.31 338.3 3211.71 340.7C3213.31 343.1 3214.11 346.4 3214.11 350.6C3214.11 358.6 3212.21 364.8 3208.41 369.2C3200.21 379.4 3191.51 388 3182.31 395C3173.11 402 3164.21 405.5 3155.61 405.5C3149.01 405.5 3142.91 403.3 3137.31 398.9C3131.91 394.3 3127.81 388.1 3125.01 380.3C3114.61 397.1 3101.51 405.5 3085.71 405.5ZM3096.51 375.2C3100.91 375.2 3105.11 372.6 3109.11 367.4C3113.11 362.2 3116.01 355.3 3117.81 346.7L3128.91 291.5C3120.51 291.7 3112.71 294.9 3105.51 301.1C3098.51 307.1 3092.91 315.1 3088.71 325.1C3084.51 335.1 3082.41 345.7 3082.41 356.9C3082.41 363.1 3083.61 367.7 3086.01 370.7C3088.61 373.7 3092.11 375.2 3096.51 375.2ZM3211.03 405.5C3203.43 405.5 3198.03 401.5 3194.83 393.5C3191.83 385.5 3190.33 372.7 3190.33 355.1C3190.33 329.1 3194.03 304.4 3201.43 281C3203.23 275.2 3206.13 271 3210.13 268.4C3214.33 265.6 3220.13 264.2 3227.53 264.2C3231.53 264.2 3234.33 264.7 3235.93 265.7C3237.53 266.7 3238.33 268.6 3238.33 271.4C3238.33 274.6 3236.83 281.8 3233.83 293C3231.83 301 3230.23 308 3229.03 314C3227.83 320 3226.83 327.4 3226.03 336.2C3232.63 319 3240.03 305 3248.23 294.2C3256.43 283.4 3264.43 275.7 3272.23 271.1C3280.23 266.5 3287.53 264.2 3294.13 264.2C3307.13 264.2 3313.63 270.7 3313.63 283.7C3313.63 291.5 3311.43 305.6 3307.03 326C3303.23 343.4 3301.33 354.9 3301.33 360.5C3301.33 368.5 3304.23 372.5 3310.03 372.5C3314.03 372.5 3318.73 370.1 3324.13 365.3C3329.73 360.3 3337.13 352.3 3346.33 341.3C3348.73 338.5 3351.43 337.1 3354.43 337.1C3357.03 337.1 3359.03 338.3 3360.43 340.7C3362.03 343.1 3362.83 346.4 3362.83 350.6C3362.83 358.6 3360.93 364.8 3357.13 369.2C3348.53 379.8 3339.23 388.5 3329.23 395.3C3319.43 402.1 3308.23 405.5 3295.63 405.5C3285.43 405.5 3277.73 402.6 3272.53 396.8C3267.33 390.8 3264.73 382.2 3264.73 371C3264.73 365.4 3266.13 355.4 3268.93 341C3271.53 328.4 3272.83 319.7 3272.83 314.9C3272.83 311.7 3271.73 310.1 3269.53 310.1C3266.93 310.1 3263.23 313.5 3258.43 320.3C3253.83 326.9 3249.03 335.7 3244.03 346.7C3239.23 357.7 3235.33 369.3 3232.33 381.5C3230.13 390.9 3227.53 397.3 3224.53 400.7C3221.73 403.9 3217.23 405.5 3211.03 405.5ZM3492.16 337.7C3494.76 337.7 3496.76 339 3498.16 341.6C3499.76 344 3500.56 347.1 3500.56 350.9C3500.56 355.5 3499.86 359.1 3498.46 361.7C3497.06 364.3 3494.86 366.6 3491.86 368.6C3474.66 380.2 3462.06 388.8 3454.06 394.4L3434.86 407.3C3427.26 448.7 3417.26 481.2 3404.86 504.8C3392.66 528.6 3377.06 540.5 3358.06 540.5C3347.86 540.5 3339.56 537.3 3333.16 530.9C3326.76 524.7 3323.56 516.5 3323.56 506.3C3323.56 492.1 3329.16 476.8 3340.36 460.4C3351.56 444.2 3372.56 424.2 3403.36 400.4L3405.16 388.7C3401.76 394.1 3397.26 398.3 3391.66 401.3C3386.26 404.1 3380.86 405.5 3375.46 405.5C3363.06 405.5 3353.16 401 3345.76 392C3338.36 383 3334.66 371.2 3334.66 356.6C3334.66 340.6 3338.36 325.5 3345.76 311.3C3353.16 296.9 3362.96 285.4 3375.16 276.8C3387.56 268 3400.66 263.6 3414.46 263.6C3418.86 263.6 3421.76 264.5 3423.16 266.3C3424.76 267.9 3426.06 270.9 3427.06 275.3C3430.86 274.5 3435.26 274.1 3440.26 274.1C3445.26 274.1 3448.76 274.9 3450.76 276.5C3452.96 277.9 3454.06 280.8 3454.06 285.2C3454.06 287.6 3453.96 289.5 3453.76 290.9C3452.96 297.1 3450.46 312.8 3446.26 338C3445.46 342.8 3444.56 348.1 3443.56 353.9C3442.76 359.5 3441.86 365.5 3440.86 371.9C3456.26 359.9 3471.06 349.3 3485.26 340.1C3487.86 338.5 3490.16 337.7 3492.16 337.7ZM3386.26 375.2C3390.86 375.2 3395.26 372.4 3399.46 366.8C3403.66 361.2 3406.66 353.2 3408.46 342.8L3418.06 291.5C3409.86 291.7 3402.26 294.9 3395.26 301.1C3388.26 307.1 3382.66 315.1 3378.46 325.1C3374.26 335.1 3372.16 345.7 3372.16 356.9C3372.16 363.1 3373.36 367.7 3375.76 370.7C3378.36 373.7 3381.86 375.2 3386.26 375.2ZM3361.36 511.4C3366.36 511.4 3371.96 505.4 3378.16 493.4C3384.56 481.4 3390.66 462.3 3396.46 436.1C3381.06 449.3 3369.96 461.2 3363.16 471.8C3356.36 482.4 3352.96 491.7 3352.96 499.7C3352.96 503.1 3353.56 505.9 3354.76 508.1C3356.16 510.3 3358.36 511.4 3361.36 511.4ZM3595.81 337.1C3598.41 337.1 3600.41 338.3 3601.81 340.7C3603.41 343.1 3604.21 346.4 3604.21 350.6C3604.21 358.6 3602.31 364.8 3598.51 369.2C3589.91 379.8 3580.51 388.5 3570.31 395.3C3560.31 402.1 3548.91 405.5 3536.11 405.5C3518.51 405.5 3505.41 397.5 3496.81 381.5C3488.41 365.5 3484.21 344.8 3484.21 319.4C3484.21 295 3487.31 267.2 3493.51 236C3499.91 204.8 3509.21 178 3521.41 155.6C3533.81 133.2 3548.51 122 3565.51 122C3575.11 122 3582.61 126.5 3588.01 135.5C3593.61 144.3 3596.41 157 3596.41 173.6C3596.41 197.4 3589.81 225 3576.61 256.4C3563.41 287.8 3545.51 318.9 3522.91 349.7C3524.31 357.9 3526.61 363.8 3529.81 367.4C3533.01 370.8 3537.21 372.5 3542.41 372.5C3550.61 372.5 3557.81 370.2 3564.01 365.6C3570.21 360.8 3578.11 352.7 3587.71 341.3C3590.11 338.5 3592.81 337.1 3595.81 337.1ZM3558.91 151.7C3554.31 151.7 3549.11 160 3543.31 176.6C3537.51 193.2 3532.41 213.8 3528.01 238.4C3523.61 263 3521.21 286.6 3520.81 309.2C3535.01 285.8 3546.31 262.4 3554.71 239C3563.11 215.4 3567.31 193.9 3567.31 174.5C3567.31 159.3 3564.51 151.7 3558.91 151.7ZM3687.37 346.1C3689.97 346.1 3691.97 347.3 3693.37 349.7C3694.97 352.1 3695.77 355.4 3695.77 359.6C3695.77 366.8 3694.07 373 3690.67 378.2C3685.07 386.8 3677.67 393.5 3668.47 398.3C3659.47 403.1 3648.67 405.5 3636.07 405.5C3616.87 405.5 3601.97 399.8 3591.37 388.4C3580.77 376.8 3575.47 361.2 3575.47 341.6C3575.47 327.8 3578.37 315 3584.17 303.2C3589.97 291.2 3597.97 281.7 3608.17 274.7C3618.57 267.7 3630.27 264.2 3643.27 264.2C3654.87 264.2 3664.17 267.7 3671.17 274.7C3678.17 281.5 3681.67 290.8 3681.67 302.6C3681.67 316.4 3676.67 328.3 3666.67 338.3C3656.87 348.1 3640.07 355.9 3616.27 361.7C3621.07 370.9 3629.17 375.5 3640.57 375.5C3648.77 375.5 3655.47 373.6 3660.67 369.8C3666.07 366 3672.27 359.6 3679.27 350.6C3681.67 347.6 3684.37 346.1 3687.37 346.1ZM3638.17 293.6C3630.77 293.6 3624.47 297.9 3619.27 306.5C3614.27 315.1 3611.77 325.5 3611.77 337.7V338.3C3623.57 335.5 3632.87 331.3 3639.67 325.7C3646.47 320.1 3649.87 313.6 3649.87 306.2C3649.87 302.4 3648.77 299.4 3646.57 297.2C3644.57 294.8 3641.77 293.6 3638.17 293.6Z" fill="url(#paint5_linear)"/>
<rect y="709" width="1851" height="208" fill="url(#paint6_linear)"/>
<rect x="5997" y="907" width="1902" height="208" transform="rotate(-180 5997 907)" fill="url(#paint7_linear)"/>
<path d="M1900.75 738.75C1900.25 744.083 1899.75 749.5 1899.25 755C1898.75 760.5 1898.33 766.333 1898 772.5C1897.83 778.5 1897.75 785.167 1897.75 792.5C1897.75 806.5 1898.83 817.333 1901 825C1903.17 832.5 1906.33 837.75 1910.5 840.75C1914.67 843.75 1919.58 845.25 1925.25 845.25L1961.25 845V866.5C1958.58 867.167 1954.83 867.917 1950 868.75C1945.33 869.583 1940.5 870.25 1935.5 870.75C1930.5 871.417 1926.08 871.917 1922.25 872.25C1918.42 872.583 1916.08 872.75 1915.25 872.75C1902.92 872.75 1892.42 870.25 1883.75 865.25C1875.08 860.083 1868.5 852.083 1864 841.25C1859.5 830.417 1857.25 816.417 1857.25 799.25C1857.25 789.417 1857.92 780.5 1859.25 772.5C1860.75 764.333 1862.58 757.5 1864.75 752C1867.25 748.833 1870.83 745.417 1875.5 741.75C1880.17 737.917 1885.17 734.25 1890.5 730.75L1900.75 738.75ZM1910.5 845.75V731.5C1910.5 730 1911 727.833 1912 725C1913 722 1914.08 718.75 1915.25 715.25L1924 715.5V831.5C1924 832.5 1923.42 834.333 1922.25 837C1921.08 839.5 1919.58 842.417 1917.75 845.75H1910.5ZM1961.25 769.5H1942.25L1938.75 740.25C1937.08 739.583 1935 739 1932.5 738.5C1930 737.833 1927.58 737.25 1925.25 736.75C1922.92 736.25 1921.08 736 1919.75 736C1918.25 736 1917 736 1916 736C1915.17 736 1914.33 736.083 1913.5 736.25L1915.25 715.25C1916.08 714.917 1916.83 714.75 1917.5 714.75C1918.17 714.583 1918.83 714.5 1919.5 714.5C1923 714.5 1927.42 714.833 1932.75 715.5C1938.08 716 1943.58 716.583 1949.25 717.25C1955.08 717.917 1960.08 718.583 1964.25 719.25L1961.25 769.5ZM2033.37 738.25C2032.87 743.417 2032.37 749.167 2031.87 755.5C2031.37 761.833 2030.95 768.25 2030.62 774.75C2030.45 781.083 2030.37 787.333 2030.37 793.5C2030.37 803.167 2030.7 811.667 2031.37 819C2032.2 826.333 2033.62 832.5 2035.62 837.5C2037.78 842.5 2040.78 846.25 2044.62 848.75C2048.45 851.25 2053.45 852.5 2059.62 852.5C2060.95 852.5 2062.7 852.25 2064.87 851.75C2067.03 851.25 2069.12 850.583 2071.12 849.75C2073.12 848.917 2074.62 848 2075.62 847C2077.62 844.667 2079.12 841.333 2080.12 837C2081.28 832.5 2082.03 826.75 2082.37 819.75C2082.87 812.583 2083.12 804.083 2083.12 794.25C2083.12 779.583 2082.2 767.917 2080.37 759.25C2078.7 750.583 2075.78 744.333 2071.62 740.5C2067.45 736.667 2061.62 734.75 2054.12 734.75C2053.45 734.75 2052.7 734.75 2051.87 734.75C2051.2 734.75 2050.37 734.833 2049.37 735L2047.87 717C2049.2 716.333 2050.62 715.75 2052.12 715.25C2053.62 714.75 2054.95 714.5 2056.12 714.5C2071.95 714.5 2084.78 717.083 2094.62 722.25C2104.62 727.25 2111.95 735.333 2116.62 746.5C2121.45 757.5 2123.87 771.833 2123.87 789.5C2123.87 800.833 2123.03 810.917 2121.37 819.75C2119.7 828.583 2117.62 835.833 2115.12 841.5C2112.45 845 2108.78 848.583 2104.12 852.25C2099.45 855.75 2094.37 859.083 2088.87 862.25C2083.37 865.417 2078.2 868 2073.37 870C2068.53 871.833 2064.78 872.75 2062.12 872.75C2050.12 872.75 2039.62 871.333 2030.62 868.5C2021.62 865.667 2014.03 861.25 2007.87 855.25C2001.87 849.25 1997.37 841.583 1994.37 832.25C1991.37 822.75 1989.87 811.583 1989.87 798.75C1989.87 788.583 1990.53 779.5 1991.87 771.5C1993.37 763.5 1995.2 756.75 1997.37 751.25C1999.87 748.083 2003.45 744.667 2008.12 741C2012.78 737.333 2017.78 733.75 2023.12 730.25L2033.37 738.25ZM2047.87 717H2056.62V840.25C2056.62 841.25 2056.03 843.083 2054.87 845.75C2053.7 848.25 2052.2 851.167 2050.37 854.5H2043.12V733.75C2043.12 732.25 2043.62 730 2044.62 727C2045.62 723.833 2046.7 720.5 2047.87 717ZM2149.1 733V718.25C2152.1 717.917 2155.68 717.5 2159.85 717C2164.02 716.5 2168.18 716.083 2172.35 715.75C2176.52 715.25 2180.1 714.917 2183.1 714.75C2186.1 714.583 2188.1 714.583 2189.1 714.75C2190.93 715.25 2192.6 716.333 2194.1 718C2195.6 719.5 2196.93 721.083 2198.1 722.75C2199.27 724.417 2200.02 725.75 2200.35 726.75V845.75L2235.85 855.5C2237.52 855.833 2238.93 855.583 2240.1 854.75C2241.43 853.75 2242.6 852.167 2243.6 850C2244.6 847.833 2245.43 845.167 2246.1 842C2247.27 836.167 2248.02 828.917 2248.35 820.25C2248.68 811.583 2248.85 802.167 2248.85 792C2248.85 783.667 2248.52 775.833 2247.85 768.5C2247.18 761.167 2246.1 754.833 2244.6 749.5C2243.27 744.167 2241.43 740.083 2239.1 737.25C2236.77 734.25 2233.93 732.917 2230.6 733.25L2215.1 734.25L2219.6 714.5H2237.1C2243.43 714.5 2249.68 715.75 2255.85 718.25C2262.02 720.583 2267.6 724.583 2272.6 730.25C2277.6 735.917 2281.52 743.667 2284.35 753.5C2287.35 763.167 2288.85 775.333 2288.85 790C2288.85 800.667 2288.43 809.667 2287.6 817C2286.77 824.333 2285.27 831 2283.1 837C2282.43 839 2280.52 841.5 2277.35 844.5C2274.35 847.5 2270.68 850.667 2266.35 854C2262.02 857.333 2257.6 860.5 2253.1 863.5C2248.6 866.333 2244.52 868.667 2240.85 870.5C2237.18 872.333 2234.52 873.25 2232.85 873.25C2224.85 873.25 2217.6 873.083 2211.1 872.75C2204.6 872.583 2198.35 872.167 2192.35 871.5C2186.35 870.833 2180.1 870 2173.6 869C2171.93 868.667 2170.27 867.75 2168.6 866.25C2166.93 864.583 2165.52 862.917 2164.35 861.25C2163.18 859.417 2162.43 858 2162.1 857V738.5L2149.1 733ZM2215.35 714.5H2224.1V840.25C2224.1 841.25 2223.52 843.083 2222.35 845.75C2221.18 848.25 2219.68 851.167 2217.85 854.5H2210.6V731C2210.6 729.667 2211.02 727.5 2211.85 724.5C2212.85 721.333 2214.02 718 2215.35 714.5ZM2378.94 714.5C2381.94 715.5 2384.44 717.417 2386.44 720.25C2388.44 722.917 2389.77 725 2390.44 726.5C2390.11 731.167 2389.77 736.167 2389.44 741.5C2389.27 746.833 2389.19 752.083 2389.19 757.25C2389.19 762.25 2389.19 766.917 2389.19 771.25C2389.19 776.917 2389.27 782.5 2389.44 788C2389.77 793.333 2390.02 798.667 2390.19 804C2390.36 809.333 2390.52 814.75 2390.69 820.25C2390.86 825.583 2390.86 831.083 2390.69 836.75C2390.52 838.75 2389.61 841.417 2387.94 844.75C2386.44 847.917 2384.77 851.167 2382.94 854.5H2375.69C2376.52 849.833 2377.02 845.167 2377.19 840.5C2377.36 835.667 2377.36 830.75 2377.19 825.75C2377.19 821.917 2377.02 818 2376.69 814C2376.52 810 2376.27 805.917 2375.94 801.75C2375.77 797.417 2375.69 793.083 2375.69 788.75C2375.69 783.75 2375.69 778.5 2375.69 773C2375.86 767.5 2376.19 762.167 2376.69 757C2377.19 751.833 2378.02 747.333 2379.19 743.5L2378.69 742H2337.69L2312.19 733V718.25C2324.02 717.25 2334.69 716.417 2344.19 715.75C2353.86 714.917 2361.77 714.333 2367.94 714C2374.11 713.667 2377.77 713.833 2378.94 714.5ZM2327.44 729.5L2365.44 740V849.25L2382.94 854.5L2375.19 869.5C2372.19 869.833 2368.69 870.25 2364.69 870.75C2360.86 871.25 2357.11 871.667 2353.44 872C2349.94 872.5 2346.77 872.833 2343.94 873C2341.27 873.167 2339.52 873.083 2338.69 872.75C2337.02 872.25 2335.36 871.25 2333.69 869.75C2332.19 868.083 2330.86 866.417 2329.69 864.75C2328.52 863.083 2327.77 861.833 2327.44 861V729.5ZM2436.61 738.5L2423.61 733V718.25C2426.61 717.917 2430.2 717.5 2434.36 717C2438.53 716.5 2442.7 716.083 2446.86 715.75C2451.03 715.25 2454.61 714.917 2457.61 714.75C2460.61 714.583 2462.61 714.583 2463.61 714.75C2465.45 715.25 2467.11 716.333 2468.61 718C2470.11 719.5 2471.45 721.083 2472.61 722.75C2473.78 724.417 2474.53 725.75 2474.86 726.75V849L2492.36 854.5L2484.61 869.25C2481.61 869.583 2478.11 870 2474.11 870.5C2470.28 871 2466.53 871.417 2462.86 871.75C2459.2 872.25 2456.03 872.583 2453.36 872.75C2450.7 872.917 2448.95 872.917 2448.11 872.75C2446.28 872.083 2444.53 871 2442.86 869.5C2441.36 868 2440.03 866.417 2438.86 864.75C2437.86 863.083 2437.11 861.75 2436.61 860.75V738.5ZM2520.61 860.75V769.75C2520.61 763.083 2520.03 758.167 2518.86 755C2517.86 751.667 2516.28 749.5 2514.11 748.5C2511.95 747.333 2509.28 746.75 2506.11 746.75C2505.11 746.75 2503.86 746.917 2502.36 747.25C2500.86 747.583 2499.28 748 2497.61 748.5C2495.95 749 2494.28 749.667 2492.61 750.5L2485.11 730.5C2486.95 729.333 2489.36 727.917 2492.36 726.25C2495.36 724.417 2498.45 722.667 2501.61 721C2504.95 719.167 2507.78 717.667 2510.11 716.5C2512.45 715.167 2513.86 714.5 2514.36 714.5C2520.53 714.333 2526.86 714.75 2533.36 715.75C2540.03 716.583 2545.28 718 2549.11 720C2552.78 725.167 2555.28 730.5 2556.61 736C2558.11 741.333 2558.86 748.333 2558.86 757V849L2571.86 854.25V869.25C2568.86 869.583 2565.28 870 2561.11 870.5C2556.95 871 2552.78 871.417 2548.61 871.75C2544.45 872.25 2540.86 872.583 2537.86 872.75C2534.86 872.917 2532.86 872.917 2531.86 872.75C2530.2 872.083 2528.53 871 2526.86 869.5C2525.36 867.833 2524.03 866.167 2522.86 864.5C2521.86 862.833 2521.11 861.583 2520.61 860.75ZM2498.61 730.5V840.25C2498.61 841.25 2498.03 843.083 2496.86 845.75C2495.7 848.25 2494.2 851.167 2492.36 854.5H2485.11V730.5H2498.61ZM2638.05 738.75C2637.55 744.083 2637.05 749.417 2636.55 754.75C2636.05 760.083 2635.64 765.75 2635.3 771.75C2635.14 777.75 2635.05 784.667 2635.05 792.5C2635.05 801.667 2635.3 809.083 2635.8 814.75C2636.47 820.25 2637.47 824.5 2638.8 827.5C2640.14 830.5 2641.8 832.833 2643.8 834.5C2645.8 836 2648.14 837.25 2650.8 838.25C2654.47 839.417 2659.39 840.583 2665.55 841.75C2671.72 842.917 2677.22 843.583 2682.05 843.75C2682.39 841.917 2682.64 839.917 2682.8 837.75C2682.97 835.417 2683.14 833.167 2683.3 831C2683.47 828.667 2683.55 826.417 2683.55 824.25C2683.72 821.917 2683.8 819.833 2683.8 818L2667.3 814.25L2672.05 786C2676.72 786.333 2682.05 787 2688.05 788C2694.22 789 2699.89 790.25 2705.05 791.75C2710.22 793.083 2713.64 794.75 2715.3 796.75C2715.64 799.75 2715.8 803.25 2715.8 807.25C2715.8 811.083 2715.72 815.083 2715.55 819.25C2715.55 823.417 2715.39 827.417 2715.05 831.25C2714.89 835.083 2714.64 838.5 2714.3 841.5C2714.14 844.5 2713.89 846.667 2713.55 848C2712.05 849.5 2709.55 851.333 2706.05 853.5C2702.55 855.5 2698.55 857.667 2694.05 860C2689.72 862.167 2685.3 864.25 2680.8 866.25C2676.47 868.25 2672.64 869.833 2669.3 871C2666.14 872.167 2663.97 872.75 2662.8 872.75C2660.64 872.75 2657.14 872.25 2652.3 871.25C2647.47 870.25 2642.3 868.917 2636.8 867.25C2631.3 865.417 2626.22 863.417 2621.55 861.25C2616.89 858.917 2613.55 856.75 2611.55 854.75C2607.89 850.917 2604.72 846.75 2602.05 842.25C2599.55 837.75 2597.64 832.333 2596.3 826C2595.14 819.667 2594.55 811.917 2594.55 802.75C2594.55 790.75 2595.22 780.667 2596.55 772.5C2598.05 764.333 2599.89 757.5 2602.05 752C2604.55 748.833 2608.14 745.417 2612.8 741.75C2617.47 737.917 2622.47 734.25 2627.8 730.75L2638.05 738.75ZM2647.8 844.5V731.5C2647.8 730 2648.3 727.833 2649.3 725C2650.3 722 2651.39 718.75 2652.55 715.25L2661.3 715.5V830.25C2661.3 831.25 2660.72 833.083 2659.55 835.75C2658.39 838.25 2656.89 841.167 2655.05 844.5H2647.8ZM2709.55 769.5H2690.55L2687.05 740.25C2684.55 739.417 2681.47 738.667 2677.8 738C2674.14 737.333 2670.47 736.833 2666.8 736.5C2663.14 736.167 2659.72 736 2656.55 736C2655.39 736 2654.22 736.083 2653.05 736.25C2651.89 736.25 2650.72 736.333 2649.55 736.5L2652.55 715.25C2653.39 714.917 2654.14 714.75 2654.8 714.75C2655.64 714.583 2656.47 714.5 2657.3 714.5C2660.3 714.5 2663.89 714.583 2668.05 714.75C2672.22 714.917 2676.72 715.25 2681.55 715.75C2686.55 716.083 2691.64 716.583 2696.8 717.25C2702.14 717.75 2707.47 718.417 2712.8 719.25L2709.55 769.5ZM2841.03 738.75C2840.53 744.083 2840.03 749.5 2839.53 755C2839.03 760.5 2838.62 766.333 2838.28 772.5C2838.12 778.5 2838.03 785.167 2838.03 792.5C2838.03 806.5 2839.12 817.333 2841.28 825C2843.45 832.5 2846.62 837.75 2850.78 840.75C2854.95 843.75 2859.87 845.25 2865.53 845.25L2901.53 845V866.5C2898.87 867.167 2895.12 867.917 2890.28 868.75C2885.62 869.583 2880.78 870.25 2875.78 870.75C2870.78 871.417 2866.37 871.917 2862.53 872.25C2858.7 872.583 2856.37 872.75 2855.53 872.75C2843.2 872.75 2832.7 870.25 2824.03 865.25C2815.37 860.083 2808.78 852.083 2804.28 841.25C2799.78 830.417 2797.53 816.417 2797.53 799.25C2797.53 789.417 2798.2 780.5 2799.53 772.5C2801.03 764.333 2802.87 757.5 2805.03 752C2807.53 748.833 2811.12 745.417 2815.78 741.75C2820.45 737.917 2825.45 734.25 2830.78 730.75L2841.03 738.75ZM2850.78 845.75V731.5C2850.78 730 2851.28 727.833 2852.28 725C2853.28 722 2854.37 718.75 2855.53 715.25L2864.28 715.5V831.5C2864.28 832.5 2863.7 834.333 2862.53 837C2861.37 839.5 2859.87 842.417 2858.03 845.75H2850.78ZM2901.53 769.5H2882.53L2879.03 740.25C2877.37 739.583 2875.28 739 2872.78 738.5C2870.28 737.833 2867.87 737.25 2865.53 736.75C2863.2 736.25 2861.37 736 2860.03 736C2858.53 736 2857.28 736 2856.28 736C2855.45 736 2854.62 736.083 2853.78 736.25L2855.53 715.25C2856.37 714.917 2857.12 714.75 2857.78 714.75C2858.45 714.583 2859.12 714.5 2859.78 714.5C2863.28 714.5 2867.7 714.833 2873.03 715.5C2878.37 716 2883.87 716.583 2889.53 717.25C2895.37 717.917 2900.37 718.583 2904.53 719.25L2901.53 769.5ZM2943.4 738.5L2930.4 733V718.25C2933.4 717.917 2936.98 717.5 2941.15 717C2945.32 716.5 2949.48 716.083 2953.65 715.75C2957.82 715.25 2961.4 714.917 2964.4 714.75C2967.4 714.583 2969.4 714.583 2970.4 714.75C2972.23 715.25 2973.9 716.333 2975.4 718C2976.9 719.5 2978.23 721.083 2979.4 722.75C2980.57 724.417 2981.32 725.75 2981.65 726.75V849.25L2999.15 854.5L2991.4 869.5C2988.4 869.833 2984.9 870.25 2980.9 870.75C2977.07 871.25 2973.32 871.667 2969.65 872C2965.98 872.5 2962.82 872.833 2960.15 873C2957.48 873.167 2955.73 873.083 2954.9 872.75C2953.07 872.25 2951.32 871.25 2949.65 869.75C2948.15 868.083 2946.82 866.417 2945.65 864.75C2944.65 863.083 2943.9 861.833 2943.4 861V738.5ZM3027.9 738.5L3016.4 733V718.25C3020.57 717.75 3025.4 717.167 3030.9 716.5C3036.4 715.833 3041.4 715.333 3045.9 715C3050.57 714.5 3053.48 714.417 3054.65 714.75C3056.48 715.25 3058.15 716.333 3059.65 718C3061.32 719.5 3062.73 721.083 3063.9 722.75C3065.07 724.417 3065.73 725.75 3065.9 726.75V849.25L3079.15 854.5V869.5C3075.98 869.833 3072.32 870.25 3068.15 870.75C3063.98 871.25 3059.82 871.667 3055.65 872C3051.65 872.5 3048.07 872.833 3044.9 873C3041.9 873.167 3039.98 873.083 3039.15 872.75C3037.48 872.25 3035.82 871.25 3034.15 869.75C3032.48 868.083 3031.07 866.417 3029.9 864.75C3028.9 863.083 3028.23 861.833 3027.9 861V738.5ZM2993.65 782.25L3033.15 780.25V803.75L2993.65 801.75V782.25ZM2996.65 717.75H3005.4V840.25C3005.4 841.25 3004.82 843.083 3003.65 845.75C3002.48 848.25 3000.98 851.167 2999.15 854.5H2991.9V734.5C2991.9 733.167 2992.32 731 2993.15 728C2994.15 724.833 2995.32 721.417 2996.65 717.75ZM3114.77 774.25C3116.44 771.25 3118.85 767.917 3122.02 764.25C3125.35 760.417 3129.1 756.667 3133.27 753C3137.6 749.167 3142.02 745.833 3146.52 743H3157.02C3155.69 745.833 3154.6 749.333 3153.77 753.5C3153.1 757.667 3152.6 763.417 3152.27 770.75C3152.1 778.083 3151.94 788.083 3151.77 800.75C3151.77 813.417 3151.77 829.75 3151.77 849.75L3169.27 854.5L3161.52 869.5C3158.52 869.833 3155.1 870.25 3151.27 870.75C3147.44 871.25 3143.69 871.667 3140.02 872C3136.52 872.5 3133.44 872.75 3130.77 872.75C3128.1 872.917 3126.35 872.917 3125.52 872.75C3123.69 872.25 3121.94 871.25 3120.27 869.75C3118.77 868.25 3117.44 866.667 3116.27 865C3115.27 863.167 3114.6 861.833 3114.27 861C3114.6 854.667 3115.27 848.5 3116.27 842.5C3117.27 836.5 3117.77 829.75 3117.77 822.25C3117.77 816.25 3117.35 810.667 3116.52 805.5C3115.85 800.167 3115.27 795 3114.77 790C3114.44 784.833 3114.44 779.583 3114.77 774.25ZM3165.02 794.5L3203.52 792.75V811.5L3165.02 809.5V794.5ZM3175.52 742.25V840.25C3175.52 841.25 3174.94 843.083 3173.77 845.75C3172.6 848.25 3171.1 851.167 3169.27 854.5H3162.02V742.25H3175.52ZM3108.27 736.25L3110.27 710C3120.77 710.833 3131.6 711.833 3142.77 713C3154.1 714 3165.02 715.167 3175.52 716.5C3186.02 717.667 3195.27 718.75 3203.27 719.75C3211.44 720.75 3217.44 721.667 3221.27 722.5C3221.77 722.667 3222.69 723.5 3224.02 725C3225.52 726.333 3227.1 728 3228.77 730C3230.6 732 3232.1 733.917 3233.27 735.75C3234.6 737.417 3235.27 738.583 3235.27 739.25V849.25L3248.52 854.5V869.5C3245.35 869.833 3241.77 870.25 3237.77 870.75C3233.77 871.25 3229.77 871.667 3225.77 872C3221.77 872.5 3218.27 872.833 3215.27 873C3212.27 873.167 3210.35 873.083 3209.52 872.75C3207.85 872.25 3206.19 871.25 3204.52 869.75C3202.85 868.083 3201.44 866.417 3200.27 864.75C3199.27 863.083 3198.6 861.833 3198.27 861V751L3153.02 744.5L3143.77 745L3143.27 743.5L3108.27 736.25ZM3327.01 731.5C3326.01 742.333 3325.43 752.25 3325.26 761.25C3325.26 770.25 3325.34 778.833 3325.51 787C3325.84 795.167 3326.01 803.333 3326.01 811.5C3326.01 816.667 3325.26 820.833 3323.76 824C3322.26 827 3320.01 829.667 3317.01 832C3314.18 834.167 3310.59 836.5 3306.26 839L3306.76 840.5L3383.51 844.75C3385.34 846.583 3386.26 849 3386.26 852L3374.76 873.5C3362.09 871.833 3351.59 870.5 3343.26 869.5C3334.93 868.333 3328.18 867.417 3323.01 866.75C3317.84 866.083 3313.84 865.667 3311.01 865.5C3308.18 865.167 3305.93 865 3304.26 865C3302.26 865 3299.34 865.333 3295.51 866C3291.68 866.667 3287.51 867.417 3283.01 868.25C3278.68 869.083 3274.43 870 3270.26 871L3267.01 868.5L3270.26 849.25C3275.59 847.75 3279.51 846.083 3282.01 844.25C3284.51 842.25 3286.18 839.75 3287.01 836.75C3287.84 833.583 3288.26 829.5 3288.26 824.5C3288.26 821.167 3288.09 817.25 3287.76 812.75C3287.43 808.25 3287.01 803.417 3286.51 798.25C3286.01 793.083 3285.51 788 3285.01 783C3284.68 777.833 3284.43 773.083 3284.26 768.75C3284.26 764.25 3284.34 760.417 3284.51 757.25C3286.18 754.25 3288.76 750.833 3292.26 747C3295.93 743 3300.09 739.083 3304.76 735.25C3309.43 731.417 3314.09 728.083 3318.76 725.25L3327.01 731.5ZM3336.76 844V733.75C3336.76 732.25 3337.26 729.583 3338.26 725.75C3339.26 721.917 3340.34 718.25 3341.51 714.75L3350.26 717V829.75C3350.26 830.75 3349.68 832.583 3348.51 835.25C3347.34 837.75 3345.84 840.667 3344.01 844H3336.76ZM3383.51 769.5H3364.51L3361.01 740.25C3359.51 739.583 3357.84 739 3356.01 738.5C3354.18 737.833 3352.26 737.25 3350.26 736.75C3348.26 736.25 3346.34 736 3344.51 736C3343.68 736 3342.93 736 3342.26 736C3341.59 736 3340.84 736.083 3340.01 736.25L3341.51 714.75C3342.34 714.583 3343.09 714.5 3343.76 714.5C3344.43 714.5 3345.09 714.5 3345.76 714.5C3349.09 714.5 3353.09 714.833 3357.76 715.5C3362.59 716 3367.51 716.583 3372.51 717.25C3377.68 717.917 3382.34 718.583 3386.51 719.25L3383.51 769.5ZM3462.07 731.5C3461.07 742.333 3460.49 752.25 3460.32 761.25C3460.32 770.25 3460.4 778.833 3460.57 787C3460.9 795.167 3461.07 803.333 3461.07 811.5C3461.07 816.667 3460.32 820.833 3458.82 824C3457.32 827 3455.07 829.667 3452.07 832C3449.24 834.167 3445.65 836.5 3441.32 839L3441.82 840.5L3518.57 844.75C3520.4 846.583 3521.32 849 3521.32 852L3509.82 873.5C3497.15 871.833 3486.65 870.5 3478.32 869.5C3469.99 868.333 3463.24 867.417 3458.07 866.75C3452.9 866.083 3448.9 865.667 3446.07 865.5C3443.24 865.167 3440.99 865 3439.32 865C3437.32 865 3434.4 865.333 3430.57 866C3426.74 866.667 3422.57 867.417 3418.07 868.25C3413.74 869.083 3409.49 870 3405.32 871L3402.07 868.5L3405.32 849.25C3410.65 847.75 3414.57 846.083 3417.07 844.25C3419.57 842.25 3421.24 839.75 3422.07 836.75C3422.9 833.583 3423.32 829.5 3423.32 824.5C3423.32 821.167 3423.15 817.25 3422.82 812.75C3422.49 808.25 3422.07 803.417 3421.57 798.25C3421.07 793.083 3420.57 788 3420.07 783C3419.74 777.833 3419.49 773.083 3419.32 768.75C3419.32 764.25 3419.4 760.417 3419.57 757.25C3421.24 754.25 3423.82 750.833 3427.32 747C3430.99 743 3435.15 739.083 3439.82 735.25C3444.49 731.417 3449.15 728.083 3453.82 725.25L3462.07 731.5ZM3471.82 844V733.75C3471.82 732.25 3472.32 729.583 3473.32 725.75C3474.32 721.917 3475.4 718.25 3476.57 714.75L3485.32 717V829.75C3485.32 830.75 3484.74 832.583 3483.57 835.25C3482.4 837.75 3480.9 840.667 3479.07 844H3471.82ZM3518.57 769.5H3499.57L3496.07 740.25C3494.57 739.583 3492.9 739 3491.07 738.5C3489.24 737.833 3487.32 737.25 3485.32 736.75C3483.32 736.25 3481.4 736 3479.57 736C3478.74 736 3477.99 736 3477.32 736C3476.65 736 3475.9 736.083 3475.07 736.25L3476.57 714.75C3477.4 714.583 3478.15 714.5 3478.82 714.5C3479.49 714.5 3480.15 714.5 3480.82 714.5C3484.15 714.5 3488.15 714.833 3492.82 715.5C3497.65 716 3502.57 716.583 3507.57 717.25C3512.74 717.917 3517.4 718.583 3521.57 719.25L3518.57 769.5ZM3543.88 733V718.25C3546.88 717.917 3550.46 717.5 3554.63 717C3558.79 716.5 3562.96 716.083 3567.13 715.75C3571.29 715.25 3574.88 714.917 3577.88 714.75C3580.88 714.583 3582.88 714.583 3583.88 714.75C3585.71 715.25 3587.38 716.333 3588.88 718C3590.38 719.5 3591.71 721.083 3592.88 722.75C3594.04 724.417 3594.79 725.75 3595.13 726.75V850.25L3637.88 855L3642.13 822H3661.38L3662.38 870C3654.04 870.333 3645.38 870.667 3636.38 871C3627.38 871.5 3618.63 871.833 3610.13 872C3601.63 872.333 3593.88 872.583 3586.88 872.75C3580.04 873.083 3574.46 873.25 3570.13 873.25C3568.29 873.25 3566.46 872.5 3564.63 871C3562.79 869.667 3561.21 868.083 3559.88 866.25C3558.54 864.25 3557.54 862.5 3556.88 861V738.5L3543.88 733ZM3610.13 717.75H3618.88V840.25C3618.88 841.25 3618.29 843.083 3617.13 845.75C3615.96 848.25 3614.46 851.167 3612.63 854.5H3605.38V734.5C3605.38 733.167 3605.79 731 3606.63 728C3607.63 724.833 3608.79 721.417 3610.13 717.75ZM3613.13 782L3644.13 780.25L3642.63 804L3614.38 802.5L3613.13 782ZM3614.38 717.75H3667.13L3663.88 766.5H3644.63L3641.63 740.75L3613.63 737L3614.38 717.75ZM3707.07 738.5L3694.07 733V718.25C3697.07 717.917 3700.66 717.5 3704.82 717C3708.99 716.5 3713.16 716.083 3717.32 715.75C3721.49 715.25 3725.07 714.917 3728.07 714.75C3731.07 714.583 3733.07 714.583 3734.07 714.75C3735.91 715.25 3737.57 716.333 3739.07 718C3740.57 719.5 3741.91 721.083 3743.07 722.75C3744.24 724.417 3744.99 725.75 3745.32 726.75V849L3762.82 854.5L3755.07 869.25C3752.07 869.583 3748.57 870 3744.57 870.5C3740.74 871 3736.99 871.417 3733.32 871.75C3729.66 872.25 3726.49 872.583 3723.82 872.75C3721.16 872.917 3719.41 872.917 3718.57 872.75C3716.74 872.083 3714.99 871 3713.32 869.5C3711.82 868 3710.49 866.417 3709.32 864.75C3708.32 863.083 3707.57 861.75 3707.07 860.75V738.5ZM3791.07 860.75V769.75C3791.07 763.083 3790.49 758.167 3789.32 755C3788.32 751.667 3786.74 749.5 3784.57 748.5C3782.41 747.333 3779.74 746.75 3776.57 746.75C3775.57 746.75 3774.32 746.917 3772.82 747.25C3771.32 747.583 3769.74 748 3768.07 748.5C3766.41 749 3764.74 749.667 3763.07 750.5L3755.57 730.5C3757.41 729.333 3759.82 727.917 3762.82 726.25C3765.82 724.417 3768.91 722.667 3772.07 721C3775.41 719.167 3778.24 717.667 3780.57 716.5C3782.91 715.167 3784.32 714.5 3784.82 714.5C3790.99 714.333 3797.32 714.75 3803.82 715.75C3810.49 716.583 3815.74 718 3819.57 720C3823.24 725.167 3825.74 730.5 3827.07 736C3828.57 741.333 3829.32 748.333 3829.32 757V849L3842.32 854.25V869.25C3839.32 869.583 3835.74 870 3831.57 870.5C3827.41 871 3823.24 871.417 3819.07 871.75C3814.91 872.25 3811.32 872.583 3808.32 872.75C3805.32 872.917 3803.32 872.917 3802.32 872.75C3800.66 872.083 3798.99 871 3797.32 869.5C3795.82 867.833 3794.49 866.167 3793.32 864.5C3792.32 862.833 3791.57 861.583 3791.07 860.75ZM3769.07 730.5V840.25C3769.07 841.25 3768.49 843.083 3767.32 845.75C3766.16 848.25 3764.66 851.167 3762.82 854.5H3755.57V730.5H3769.07ZM3908.51 738.75C3908.01 744.083 3907.51 749.417 3907.01 754.75C3906.51 760.083 3906.1 765.75 3905.76 771.75C3905.6 777.75 3905.51 784.667 3905.51 792.5C3905.51 801.667 3905.76 809.083 3906.26 814.75C3906.93 820.25 3907.93 824.5 3909.26 827.5C3910.6 830.5 3912.26 832.833 3914.26 834.5C3916.26 836 3918.6 837.25 3921.26 838.25C3924.93 839.417 3929.85 840.583 3936.01 841.75C3942.18 842.917 3947.68 843.583 3952.51 843.75C3952.85 841.917 3953.1 839.917 3953.26 837.75C3953.43 835.417 3953.6 833.167 3953.76 831C3953.93 828.667 3954.01 826.417 3954.01 824.25C3954.18 821.917 3954.26 819.833 3954.26 818L3937.76 814.25L3942.51 786C3947.18 786.333 3952.51 787 3958.51 788C3964.68 789 3970.35 790.25 3975.51 791.75C3980.68 793.083 3984.1 794.75 3985.76 796.75C3986.1 799.75 3986.26 803.25 3986.26 807.25C3986.26 811.083 3986.18 815.083 3986.01 819.25C3986.01 823.417 3985.85 827.417 3985.51 831.25C3985.35 835.083 3985.1 838.5 3984.76 841.5C3984.6 844.5 3984.35 846.667 3984.01 848C3982.51 849.5 3980.01 851.333 3976.51 853.5C3973.01 855.5 3969.01 857.667 3964.51 860C3960.18 862.167 3955.76 864.25 3951.26 866.25C3946.93 868.25 3943.1 869.833 3939.76 871C3936.6 872.167 3934.43 872.75 3933.26 872.75C3931.1 872.75 3927.6 872.25 3922.76 871.25C3917.93 870.25 3912.76 868.917 3907.26 867.25C3901.76 865.417 3896.68 863.417 3892.01 861.25C3887.35 858.917 3884.01 856.75 3882.01 854.75C3878.35 850.917 3875.18 846.75 3872.51 842.25C3870.01 837.75 3868.1 832.333 3866.76 826C3865.6 819.667 3865.01 811.917 3865.01 802.75C3865.01 790.75 3865.68 780.667 3867.01 772.5C3868.51 764.333 3870.35 757.5 3872.51 752C3875.01 748.833 3878.6 745.417 3883.26 741.75C3887.93 737.917 3892.93 734.25 3898.26 730.75L3908.51 738.75ZM3918.26 844.5V731.5C3918.26 730 3918.76 727.833 3919.76 725C3920.76 722 3921.85 718.75 3923.01 715.25L3931.76 715.5V830.25C3931.76 831.25 3931.18 833.083 3930.01 835.75C3928.85 838.25 3927.35 841.167 3925.51 844.5H3918.26ZM3980.01 769.5H3961.01L3957.51 740.25C3955.01 739.417 3951.93 738.667 3948.26 738C3944.6 737.333 3940.93 736.833 3937.26 736.5C3933.6 736.167 3930.18 736 3927.01 736C3925.85 736 3924.68 736.083 3923.51 736.25C3922.35 736.25 3921.18 736.333 3920.01 736.5L3923.01 715.25C3923.85 714.917 3924.6 714.75 3925.26 714.75C3926.1 714.583 3926.93 714.5 3927.76 714.5C3930.76 714.5 3934.35 714.583 3938.51 714.75C3942.68 714.917 3947.18 715.25 3952.01 715.75C3957.01 716.083 3962.1 716.583 3967.26 717.25C3972.6 717.75 3977.93 718.417 3983.26 719.25L3980.01 769.5ZM4014.48 733V718.25C4017.48 717.917 4021.07 717.5 4025.23 717C4029.4 716.5 4033.57 716.083 4037.73 715.75C4041.9 715.25 4045.48 714.917 4048.48 714.75C4051.48 714.583 4053.48 714.583 4054.48 714.75C4056.32 715.25 4057.98 716.333 4059.48 718C4060.98 719.5 4062.32 721.083 4063.48 722.75C4064.65 724.417 4065.4 725.75 4065.73 726.75V850.25L4108.48 855L4112.73 822H4131.98L4132.98 870C4124.65 870.333 4115.98 870.667 4106.98 871C4097.98 871.5 4089.23 871.833 4080.73 872C4072.23 872.333 4064.48 872.583 4057.48 872.75C4050.65 873.083 4045.07 873.25 4040.73 873.25C4038.9 873.25 4037.07 872.5 4035.23 871C4033.4 869.667 4031.82 868.083 4030.48 866.25C4029.15 864.25 4028.15 862.5 4027.48 861V738.5L4014.48 733ZM4080.73 717.75H4089.48V840.25C4089.48 841.25 4088.9 843.083 4087.73 845.75C4086.57 848.25 4085.07 851.167 4083.23 854.5H4075.98V734.5C4075.98 733.167 4076.4 731 4077.23 728C4078.23 724.833 4079.4 721.417 4080.73 717.75ZM4083.73 782L4114.73 780.25L4113.23 804L4084.98 802.5L4083.73 782ZM4084.98 717.75H4137.73L4134.48 766.5H4115.23L4112.23 740.75L4084.23 737L4084.98 717.75Z" fill="url(#paint8_linear)"/>
<rect x="5" y="5" width="5987" height="1153" stroke="url(#paint9_linear)" stroke-width="10"/>
<defs>
<linearGradient id="paint0_linear" x1="2574" y1="286.894" x2="2327.06" y2="286.894" gradientUnits="userSpaceOnUse">
<stop stop-color="#FF9314"/>
<stop offset="0.760417"/>
</linearGradient>
<linearGradient id="paint1_linear" x1="2354.99" y1="267.712" x2="2354.99" y2="301.813" gradientUnits="userSpaceOnUse">
<stop stop-color="#FF9314"/>
<stop offset="0.760417"/>
</linearGradient>
<linearGradient id="paint2_linear" x1="2291.05" y1="267.712" x2="2291.05" y2="301.813" gradientUnits="userSpaceOnUse">
<stop stop-color="#FF9314"/>
<stop offset="0.760417"/>
</linearGradient>
<linearGradient id="paint3_linear" x1="2354.99" y1="195.835" x2="2354.99" y2="229.789" gradientUnits="userSpaceOnUse">
<stop stop-color="#FF9314"/>
<stop offset="0.760417"/>
</linearGradient>
<linearGradient id="paint4_linear" x1="2354.99" y1="343.851" x2="2354.99" y2="377.952" gradientUnits="userSpaceOnUse">
<stop stop-color="#FF9314"/>
<stop offset="0.760417"/>
</linearGradient>
<linearGradient id="paint5_linear" x1="2481.5" y1="135" x2="3660" y2="424.5" gradientUnits="userSpaceOnUse">
<stop/>
<stop offset="1" stop-color="#FF9213"/>
</linearGradient>
<linearGradient id="paint6_linear" x1="1.03433e-05" y1="813" x2="1565.56" y2="813" gradientUnits="userSpaceOnUse">
<stop stop-color="#301C04"/>
<stop offset="1" stop-color="#C4C4C4" stop-opacity="0"/>
</linearGradient>
<linearGradient id="paint7_linear" x1="5997" y1="1011" x2="7605.69" y2="1011" gradientUnits="userSpaceOnUse">
<stop stop-color="#FA9013"/>
<stop offset="1" stop-color="#C4C4C4" stop-opacity="0"/>
</linearGradient>
<linearGradient id="paint8_linear" x1="1603" y1="505.5" x2="4373.5" y2="901" gradientUnits="userSpaceOnUse">
<stop stop-color="#2F681B"/>
<stop offset="1" stop-color="#1C2745"/>
</linearGradient>
<linearGradient id="paint9_linear" x1="2998.5" y1="0" x2="2998.5" y2="1163" gradientUnits="userSpaceOnUse">
<stop stop-color="#6C6F00"/>
<stop offset="1" stop-color="#2D0076" stop-opacity="0"/>
</linearGradient>
</defs>
</svg>
